<mxfile host="app.diagrams.net" agent="Mozilla/5.0 (Windows NT 10.0; Win64; x64) AppleWebKit/537.36 (KHTML, like Gecko) Chrome/132.0.0.0 Safari/537.36 Edg/132.0.0.0" version="24.8.6">
  <diagram name="Sayfa -1" id="sBxWztrtkbGhNoPMcbBR">
    <mxGraphModel dx="2853" dy="2310" grid="1" gridSize="10" guides="1" tooltips="1" connect="1" arrows="1" fold="1" page="1" pageScale="1" pageWidth="827" pageHeight="1169" math="0" shadow="0">
      <root>
        <mxCell id="0" />
        <mxCell id="1" parent="0" />
        <mxCell id="GINA6uyGxHxWGZFXqsKj-29" value="" style="edgeStyle=orthogonalEdgeStyle;rounded=0;orthogonalLoop=1;jettySize=auto;html=1;" edge="1" parent="1" source="2" target="GINA6uyGxHxWGZFXqsKj-28">
          <mxGeometry relative="1" as="geometry" />
        </mxCell>
        <mxCell id="2" value="Tüm yanıtları" style="whiteSpace=wrap;strokeWidth=2;fillColor=#6171FF;" parent="1" vertex="1">
          <mxGeometry x="-1.0477024177792202" width="153" height="52" as="geometry" />
        </mxCell>
        <mxCell id="3" value="Eksiksiz Kara Kutu Testi" style="rounded=1;arcSize=40;strokeWidth=2" parent="1" vertex="1">
          <mxGeometry x="-22.04770241777922" y="152" width="195" height="52" as="geometry" />
        </mxCell>
        <mxCell id="4" value="Eksiksiz Beyaz Kutu Testi" style="rounded=1;arcSize=40;strokeWidth=2" parent="1" vertex="1">
          <mxGeometry x="-29.16751234685117" y="304" width="206" height="52" as="geometry" />
        </mxCell>
        <mxCell id="5" value="Başarılı mı?" style="rhombus;strokeWidth=2;whiteSpace=wrap;" parent="1" vertex="1">
          <mxGeometry x="4.592867795004921" y="456" width="132" height="132" as="geometry" />
        </mxCell>
        <mxCell id="6" value="Ürünü Yayınla" style="rounded=1;arcSize=40;strokeWidth=2" parent="1" vertex="1">
          <mxGeometry x="9.75" y="992" width="124" height="52" as="geometry" />
        </mxCell>
        <mxCell id="7" value="Geri Bildirim Al" style="rounded=1;arcSize=40;strokeWidth=2" parent="1" vertex="1">
          <mxGeometry x="48.5" y="688" width="139" height="52" as="geometry" />
        </mxCell>
        <mxCell id="8" value="Bug Çalışması" style="rounded=1;arcSize=40;strokeWidth=2" parent="1" vertex="1">
          <mxGeometry x="55.5" y="840" width="125" height="52" as="geometry" />
        </mxCell>
        <mxCell id="9" value="" style="curved=1;dashed=1;dashPattern=2 3;startArrow=none;endArrow=block;exitX=1;exitY=0.5;entryX=0;entryY=0.5;noEdgeStyle=1;orthogonal=1;" parent="1" source="2" target="3" edge="1">
          <mxGeometry relative="1" as="geometry">
            <Array as="points">
              <mxPoint x="75.45229758222078" y="64" />
              <mxPoint x="75.45229758222078" y="140" />
            </Array>
          </mxGeometry>
        </mxCell>
        <mxCell id="10" value="" style="curved=1;dashed=1;dashPattern=2 3;startArrow=none;endArrow=block;exitX=1;exitY=0.5;entryX=0;entryY=0.5;noEdgeStyle=1;orthogonal=1;" parent="1" source="3" target="4" edge="1">
          <mxGeometry relative="1" as="geometry">
            <Array as="points">
              <mxPoint x="75.45229758222078" y="216" />
              <mxPoint x="73.83248765314883" y="292" />
            </Array>
          </mxGeometry>
        </mxCell>
        <mxCell id="11" value="" style="curved=1;dashed=1;dashPattern=2 3;startArrow=none;endArrow=block;exitX=1;exitY=0.5;entryX=0;entryY=0.5;noEdgeStyle=1;orthogonal=1;" parent="1" source="4" target="5" edge="1">
          <mxGeometry relative="1" as="geometry">
            <Array as="points">
              <mxPoint x="73.83248765314883" y="368" />
              <mxPoint x="70.5928677950049" y="444" />
            </Array>
          </mxGeometry>
        </mxCell>
        <mxCell id="12" value="Evet" style="curved=1;startArrow=none;endArrow=block;exitX=1;exitY=0.36;entryX=0;entryY=0.08;noEdgeStyle=1;orthogonal=1;" parent="1" source="5" target="6" edge="1">
          <mxGeometry relative="1" as="geometry">
            <Array as="points">
              <mxPoint x="40.09286779500492" y="600" />
              <mxPoint x="18.5" y="638" />
              <mxPoint x="18.5" y="790" />
              <mxPoint x="18.5" y="790" />
              <mxPoint x="18.5" y="942" />
              <mxPoint x="43.25" y="980" />
            </Array>
          </mxGeometry>
        </mxCell>
        <mxCell id="13" value="Hayır" style="curved=1;startArrow=none;endArrow=block;exitX=1;exitY=0.64;entryX=0;entryY=0.49;noEdgeStyle=1;orthogonal=1;" parent="1" source="5" target="7" edge="1">
          <mxGeometry relative="1" as="geometry">
            <Array as="points">
              <mxPoint x="101.0928677950049" y="600" />
              <mxPoint x="118" y="676" />
            </Array>
          </mxGeometry>
        </mxCell>
        <mxCell id="14" value="" style="curved=1;dashed=1;dashPattern=2 3;startArrow=none;endArrow=block;exitX=1;exitY=0.49;entryX=0;entryY=0.49;noEdgeStyle=1;orthogonal=1;" parent="1" source="7" target="8" edge="1">
          <mxGeometry relative="1" as="geometry">
            <Array as="points">
              <mxPoint x="118" y="752" />
              <mxPoint x="118" y="828" />
            </Array>
          </mxGeometry>
        </mxCell>
        <mxCell id="15" value="" style="curved=1;dashed=1;dashPattern=2 3;startArrow=none;endArrow=block;exitX=1;exitY=0.49;entryX=0;entryY=0.92;noEdgeStyle=1;orthogonal=1;" parent="1" source="8" target="6" edge="1">
          <mxGeometry relative="1" as="geometry">
            <Array as="points">
              <mxPoint x="118" y="904" />
              <mxPoint x="100.25" y="980" />
            </Array>
          </mxGeometry>
        </mxCell>
        <mxCell id="GINA6uyGxHxWGZFXqsKj-15" value="Cross-Functional Flowchart" style="shape=table;childLayout=tableLayout;startSize=40;collapsible=0;recursiveResize=0;expand=0;" vertex="1" parent="1">
          <mxGeometry x="630" y="280" width="400" height="400" as="geometry" />
        </mxCell>
        <mxCell id="GINA6uyGxHxWGZFXqsKj-16" value="" style="shape=tableRow;horizontal=0;swimlaneHead=0;swimlaneBody=0;top=0;left=0;strokeColor=inherit;bottom=0;right=0;dropTarget=0;fontStyle=0;fillColor=none;points=[[0,0.5],[1,0.5]];portConstraint=eastwest;startSize=40;collapsible=0;recursiveResize=0;expand=0;" vertex="1" parent="GINA6uyGxHxWGZFXqsKj-15">
          <mxGeometry y="40" width="400" height="120" as="geometry" />
        </mxCell>
        <mxCell id="GINA6uyGxHxWGZFXqsKj-17" value="" style="swimlane;swimlaneHead=0;swimlaneBody=0;fontStyle=0;strokeColor=inherit;connectable=0;fillColor=none;startSize=40;collapsible=0;recursiveResize=0;expand=0;" vertex="1" parent="GINA6uyGxHxWGZFXqsKj-16">
          <mxGeometry x="40" width="120" height="120" as="geometry">
            <mxRectangle width="120" height="120" as="alternateBounds" />
          </mxGeometry>
        </mxCell>
        <mxCell id="GINA6uyGxHxWGZFXqsKj-18" value="" style="swimlane;swimlaneHead=0;swimlaneBody=0;fontStyle=0;strokeColor=inherit;connectable=0;fillColor=none;startSize=40;collapsible=0;recursiveResize=0;expand=0;" vertex="1" parent="GINA6uyGxHxWGZFXqsKj-16">
          <mxGeometry x="160" width="120" height="120" as="geometry">
            <mxRectangle width="120" height="120" as="alternateBounds" />
          </mxGeometry>
        </mxCell>
        <mxCell id="GINA6uyGxHxWGZFXqsKj-19" value="" style="swimlane;swimlaneHead=0;swimlaneBody=0;fontStyle=0;strokeColor=inherit;connectable=0;fillColor=none;startSize=40;collapsible=0;recursiveResize=0;expand=0;" vertex="1" parent="GINA6uyGxHxWGZFXqsKj-16">
          <mxGeometry x="280" width="120" height="120" as="geometry">
            <mxRectangle width="120" height="120" as="alternateBounds" />
          </mxGeometry>
        </mxCell>
        <mxCell id="GINA6uyGxHxWGZFXqsKj-20" value="" style="shape=tableRow;horizontal=0;swimlaneHead=0;swimlaneBody=0;top=0;left=0;strokeColor=inherit;bottom=0;right=0;dropTarget=0;fontStyle=0;fillColor=none;points=[[0,0.5],[1,0.5]];portConstraint=eastwest;startSize=40;collapsible=0;recursiveResize=0;expand=0;" vertex="1" parent="GINA6uyGxHxWGZFXqsKj-15">
          <mxGeometry y="160" width="400" height="120" as="geometry" />
        </mxCell>
        <mxCell id="GINA6uyGxHxWGZFXqsKj-21" value="" style="swimlane;swimlaneHead=0;swimlaneBody=0;fontStyle=0;connectable=0;strokeColor=inherit;fillColor=none;startSize=0;collapsible=0;recursiveResize=0;expand=0;" vertex="1" parent="GINA6uyGxHxWGZFXqsKj-20">
          <mxGeometry x="40" width="120" height="120" as="geometry">
            <mxRectangle width="120" height="120" as="alternateBounds" />
          </mxGeometry>
        </mxCell>
        <mxCell id="GINA6uyGxHxWGZFXqsKj-22" value="" style="swimlane;swimlaneHead=0;swimlaneBody=0;fontStyle=0;connectable=0;strokeColor=inherit;fillColor=none;startSize=0;collapsible=0;recursiveResize=0;expand=0;" vertex="1" parent="GINA6uyGxHxWGZFXqsKj-20">
          <mxGeometry x="160" width="120" height="120" as="geometry">
            <mxRectangle width="120" height="120" as="alternateBounds" />
          </mxGeometry>
        </mxCell>
        <mxCell id="GINA6uyGxHxWGZFXqsKj-23" value="" style="swimlane;swimlaneHead=0;swimlaneBody=0;fontStyle=0;connectable=0;strokeColor=inherit;fillColor=none;startSize=0;collapsible=0;recursiveResize=0;expand=0;" vertex="1" parent="GINA6uyGxHxWGZFXqsKj-20">
          <mxGeometry x="280" width="120" height="120" as="geometry">
            <mxRectangle width="120" height="120" as="alternateBounds" />
          </mxGeometry>
        </mxCell>
        <mxCell id="GINA6uyGxHxWGZFXqsKj-24" value="" style="shape=tableRow;horizontal=0;swimlaneHead=0;swimlaneBody=0;top=0;left=0;strokeColor=inherit;bottom=0;right=0;dropTarget=0;fontStyle=0;fillColor=none;points=[[0,0.5],[1,0.5]];portConstraint=eastwest;startSize=40;collapsible=0;recursiveResize=0;expand=0;" vertex="1" parent="GINA6uyGxHxWGZFXqsKj-15">
          <mxGeometry y="280" width="400" height="120" as="geometry" />
        </mxCell>
        <mxCell id="GINA6uyGxHxWGZFXqsKj-25" value="" style="swimlane;swimlaneHead=0;swimlaneBody=0;fontStyle=0;connectable=0;strokeColor=inherit;fillColor=none;startSize=0;collapsible=0;recursiveResize=0;expand=0;" vertex="1" parent="GINA6uyGxHxWGZFXqsKj-24">
          <mxGeometry x="40" width="120" height="120" as="geometry">
            <mxRectangle width="120" height="120" as="alternateBounds" />
          </mxGeometry>
        </mxCell>
        <mxCell id="GINA6uyGxHxWGZFXqsKj-26" value="" style="swimlane;swimlaneHead=0;swimlaneBody=0;fontStyle=0;connectable=0;strokeColor=inherit;fillColor=none;startSize=0;collapsible=0;recursiveResize=0;expand=0;" vertex="1" parent="GINA6uyGxHxWGZFXqsKj-24">
          <mxGeometry x="160" width="120" height="120" as="geometry">
            <mxRectangle width="120" height="120" as="alternateBounds" />
          </mxGeometry>
        </mxCell>
        <mxCell id="GINA6uyGxHxWGZFXqsKj-27" value="" style="swimlane;swimlaneHead=0;swimlaneBody=0;fontStyle=0;connectable=0;strokeColor=inherit;fillColor=none;startSize=0;collapsible=0;recursiveResize=0;expand=0;" vertex="1" parent="GINA6uyGxHxWGZFXqsKj-24">
          <mxGeometry x="280" width="120" height="120" as="geometry">
            <mxRectangle width="120" height="120" as="alternateBounds" />
          </mxGeometry>
        </mxCell>
        <mxCell id="GINA6uyGxHxWGZFXqsKj-31" value="" style="edgeStyle=orthogonalEdgeStyle;rounded=0;orthogonalLoop=1;jettySize=auto;html=1;" edge="1" parent="1" source="GINA6uyGxHxWGZFXqsKj-28" target="GINA6uyGxHxWGZFXqsKj-30">
          <mxGeometry relative="1" as="geometry" />
        </mxCell>
        <mxCell id="GINA6uyGxHxWGZFXqsKj-28" value="Tüm yanıtları" style="whiteSpace=wrap;strokeWidth=2;" vertex="1" parent="1">
          <mxGeometry x="231.9522975822208" width="153" height="52" as="geometry" />
        </mxCell>
        <mxCell id="GINA6uyGxHxWGZFXqsKj-33" value="" style="edgeStyle=orthogonalEdgeStyle;rounded=0;orthogonalLoop=1;jettySize=auto;html=1;" edge="1" parent="1" source="GINA6uyGxHxWGZFXqsKj-30" target="GINA6uyGxHxWGZFXqsKj-32">
          <mxGeometry relative="1" as="geometry" />
        </mxCell>
        <mxCell id="GINA6uyGxHxWGZFXqsKj-30" value="Tüm yanıtları" style="whiteSpace=wrap;strokeWidth=2;" vertex="1" parent="1">
          <mxGeometry x="231.9522975822208" y="132" width="153" height="52" as="geometry" />
        </mxCell>
        <mxCell id="GINA6uyGxHxWGZFXqsKj-32" value="Tüm yanıtları" style="whiteSpace=wrap;strokeWidth=2;" vertex="1" parent="1">
          <mxGeometry x="231.9522975822208" y="264" width="153" height="52" as="geometry" />
        </mxCell>
        <mxCell id="GINA6uyGxHxWGZFXqsKj-34" value="" style="shape=stencil(tZThDoIgEICfhr8NYT1Ao3oP0jOZBAwo6+1D0S1NXWu4Oba70+8+kRNR5ipuABFcIXpEhGQYhzXEzSTmzkDuY/LBreAXCbHivNU1NKLwPUOoCqzwbZWeED6Ee9qLslwrFSBCKzeqfNQDjAsVnsXPCOvbv0aRCfwbeLC9ZMwicv4du9tvA8428h1jB/vkvunAY+Nsqw+XDJz9j6UsZJYON2UXntdXq++qmJWx7Vytn/fpME6HdVZooS1lpbaw4lMKKeNMr+wgSCmMg8TeA32xffdiX/5dNv7IusQb);whiteSpace=wrap;html=1;" vertex="1" parent="1">
          <mxGeometry x="-30" y="1070" width="120" height="120" as="geometry" />
        </mxCell>
        <mxCell id="GINA6uyGxHxWGZFXqsKj-35" value="&lt;h1 style=&quot;margin-top: 0px;&quot;&gt;Heading&lt;/h1&gt;&lt;p&gt;Lorem ipsum dolor sit amet, consectetur adipisicing elit, sed do eiusmod tempor incididunt ut labore et dolore magna aliqua.&lt;/p&gt;" style="text;html=1;whiteSpace=wrap;overflow=hidden;rounded=0;" vertex="1" parent="1">
          <mxGeometry x="980" y="144" width="180" height="120" as="geometry" />
        </mxCell>
        <mxCell id="GINA6uyGxHxWGZFXqsKj-36" value="Horizontal Tree Layout" style="swimlane;startSize=20;horizontal=0;childLayout=treeLayout;horizontalTree=1;sortEdges=1;resizable=0;containerType=tree;fontSize=12;" vertex="1" parent="1">
          <mxGeometry x="480" y="884" width="310" height="160" as="geometry" />
        </mxCell>
        <mxCell id="GINA6uyGxHxWGZFXqsKj-37" value="Root" style="whiteSpace=wrap;html=1;" vertex="1" parent="GINA6uyGxHxWGZFXqsKj-36">
          <mxGeometry x="40" y="60" width="100" height="40" as="geometry" />
        </mxCell>
        <mxCell id="GINA6uyGxHxWGZFXqsKj-38" value="Child 1" style="whiteSpace=wrap;html=1;" vertex="1" parent="GINA6uyGxHxWGZFXqsKj-36">
          <mxGeometry x="190" y="20" width="100" height="40" as="geometry" />
        </mxCell>
        <mxCell id="GINA6uyGxHxWGZFXqsKj-39" value="" style="edgeStyle=elbowEdgeStyle;elbow=horizontal;html=1;rounded=1;curved=0;sourcePerimeterSpacing=0;targetPerimeterSpacing=0;startSize=6;endSize=6;" edge="1" parent="GINA6uyGxHxWGZFXqsKj-36" source="GINA6uyGxHxWGZFXqsKj-37" target="GINA6uyGxHxWGZFXqsKj-38">
          <mxGeometry relative="1" as="geometry" />
        </mxCell>
        <mxCell id="GINA6uyGxHxWGZFXqsKj-40" value="Child 2" style="whiteSpace=wrap;html=1;" vertex="1" parent="GINA6uyGxHxWGZFXqsKj-36">
          <mxGeometry x="190" y="100" width="100" height="40" as="geometry" />
        </mxCell>
        <mxCell id="GINA6uyGxHxWGZFXqsKj-41" value="" style="edgeStyle=elbowEdgeStyle;elbow=horizontal;html=1;rounded=1;curved=0;sourcePerimeterSpacing=0;targetPerimeterSpacing=0;startSize=6;endSize=6;" edge="1" parent="GINA6uyGxHxWGZFXqsKj-36" source="GINA6uyGxHxWGZFXqsKj-37" target="GINA6uyGxHxWGZFXqsKj-40">
          <mxGeometry relative="1" as="geometry" />
        </mxCell>
        <UserObject label="Central Idea" treeRoot="1" id="GINA6uyGxHxWGZFXqsKj-42">
          <mxCell style="ellipse;whiteSpace=wrap;html=1;align=center;collapsible=0;container=1;recursiveResize=0;" vertex="1" parent="1">
            <mxGeometry x="980" y="904" width="100" height="40" as="geometry" />
          </mxCell>
        </UserObject>
      </root>
    </mxGraphModel>
  </diagram>
</mxfile>
